<?xml version="1.0" standalone="no"?><!DOCTYPE svg PUBLIC "-//W3C//DTD SVG 1.1//EN" "http://www.w3.org/Graphics/SVG/1.1/DTD/svg11.dtd"><svg t="1564128569853" class="icon" viewBox="0 0 1024 1024" version="1.1" xmlns="http://www.w3.org/2000/svg" p-id="3381" xmlns:xlink="http://www.w3.org/1999/xlink" width="200" height="200"><defs><style type="text/css"></style></defs><path d="M930.474667 893.895111H93.468444a36.522667 36.522667 0 1 0 0 73.102222h837.006223a36.522667 36.522667 0 1 0 0-73.102222zM292.579556 774.030222l239.217777-101.262222a33.621333 33.621333 0 0 0 10.353778-6.940444l403.456-403.456a73.386667 73.386667 0 0 0 0.170667-103.651556L865.28 78.222222a73.386667 73.386667 0 0 0-103.651556 0.170667L358.172444 481.848889a32.483556 32.483556 0 0 0-6.883555 10.353778l-101.376 239.160889c-5.688889 13.368889-1.706667 26.908444 6.883555 35.612444a32.085333 32.085333 0 0 0 35.783112 7.054222z m520.760888-643.925333l0.227556-0.227556 80.440889 80.497778-0.227556 0.170667-62.976 62.976-80.440889-80.440889 62.976-62.976zM415.459556 527.985778l283.192888-283.192889 80.440889 80.440889-283.192889 283.192889-139.548444 59.164444L415.459556 527.928889z" fill="#3B6CFF" p-id="3382"></path></svg>