<?xml version="1.0" standalone="no"?><!DOCTYPE svg PUBLIC "-//W3C//DTD SVG 1.1//EN" "http://www.w3.org/Graphics/SVG/1.1/DTD/svg11.dtd"><svg t="1558431614922" class="icon" style="" viewBox="0 0 1025 1024" version="1.1" xmlns="http://www.w3.org/2000/svg" p-id="2999" xmlns:xlink="http://www.w3.org/1999/xlink" width="200.1953125" height="200"><defs><style type="text/css"></style></defs><path d="M196.923077 689.230769a334.769231 334.769231 0 1 0 669.538461 0 334.769231 334.769231 0 0 0-669.538461 0z" fill="#CDF5E5" p-id="3000"></path><path d="M511.960615 1024C229.179077 1024 0 794.781538 0 512S218.269538 0 501.011692 0c16.541538 0.078769 29.932308 13.548308 29.932308 30.129231 0 16.541538-13.390769 49.506462-29.932308 49.624615-221.853538 0-380.140308 141.627077-415.271384 360.763077-35.131077 219.096615 74.24 411.844923 284.987077 481.201231 210.786462 69.316923 415.625846-5.238154 517.435077-202.397539 101.848615-197.159385 70.498462-439.099077-108.032-570.840615-10.043077-8.388923-10.043077-23.709538-8.822154-34.382769 1.181538-10.712615 14.493538-24.536615 24.379077-28.829539 9.846154-4.332308 27.175385-1.851077 38.596923 4.253539 164.036923 99.249231 233.156923 372.460308 164.036923 582.498461A511.960615 511.960615 0 0 1 511.921231 1024z" fill="#3B6CFF" p-id="3001"></path><path d="M512 630.153846c-21.740308 0-39.384615-14.454154-39.384615-32.295384V32.295385c0-17.841231 17.644308-32.295385 39.384615-32.295385s39.384615 14.454154 39.384615 32.295385v565.563077c0 17.841231-17.644308 32.295385-39.384615 32.295384z" fill="#3B6CFF" p-id="3002"></path><path d="M490.653538 660.164923l-167.463384-173.922461a32.807385 32.807385 0 0 1 1.102769-43.716924 29.262769 29.262769 0 0 1 41.708308-0.984615L512 592.974769l145.92-151.433846a29.262769 29.262769 0 0 1 41.708308 1.024c11.421538 11.894154 11.894154 31.113846 1.102769 43.716923l-167.384615 173.883077A29.538462 29.538462 0 0 1 512 669.538462a29.538462 29.538462 0 0 1-21.346462-9.373539z" fill="#3B6CFF" p-id="3003"></path></svg>