<?xml version="1.0" standalone="no"?><!DOCTYPE svg PUBLIC "-//W3C//DTD SVG 1.1//EN" "http://www.w3.org/Graphics/SVG/1.1/DTD/svg11.dtd"><svg t="1564380490440" class="icon" viewBox="0 0 1024 1024" version="1.1" xmlns="http://www.w3.org/2000/svg" p-id="3384" xmlns:xlink="http://www.w3.org/1999/xlink" width="200" height="200"><defs><style type="text/css"></style></defs><path d="M0 512c0 281.6 230.4 512 512 512s512-230.4 512-512-230.4-512-512-512-512 230.4-512 512z" fill="#FF3939" p-id="3385"></path><path d="M512 640c-32 0-64-18.176-64-48.448L427.968 273.92C427.968 222.72 465.856 192 512 192c46.08 0 85.376 30.72 85.376 81.92L576 591.552C576 615.808 544 640 512 640z m-64 128c0 35.584 28.416 64 64 64s64-28.416 64-64-28.416-64-64-64-64 28.416-64 64z" fill="#FFFFFF" p-id="3386"></path></svg>