<?xml version="1.0" standalone="no"?><!DOCTYPE svg PUBLIC "-//W3C//DTD SVG 1.1//EN" "http://www.w3.org/Graphics/SVG/1.1/DTD/svg11.dtd"><svg t="1564108675959" class="icon" viewBox="0 0 1024 1024" version="1.1" xmlns="http://www.w3.org/2000/svg" p-id="3163" xmlns:xlink="http://www.w3.org/1999/xlink" width="32" height="32"><defs><style type="text/css"></style></defs><path d="M689.121744 827.122699a334.681174 334.681174 0 1 0 0-669.413538 334.681174 334.681174 0 0 0 0 669.413538z" fill="#3B6CFF" opacity=".2" p-id="3164"></path><path d="M1023.802918 512.149731C1023.802918 794.821717 794.624635 1024 511.901459 1024S0 805.776408 0 523.053232a30.099806 30.099806 0 0 1 30.099806-29.895045c16.585607 0 49.500871 13.309438 49.654441 29.895045-0.05119 221.858092 141.591944 380.086833 360.634578 415.203274 219.093824 35.11644 411.773534-74.225712 481.136181-284.924352 69.362648-210.698641-5.221395-415.510414-202.354646-517.327615C522.139488 34.187339 280.163668 65.515708 148.451423 244.015747a30.150996 30.150996 0 0 1-48.477068-35.833102A511.901459 511.901459 0 0 1 1023.802918 512.149731z" fill="#3B6CFF" p-id="3165"></path><path d="M630.048316 512.098541c0 21.755812-14.486811 39.416412-32.300982 39.416412H32.249792C14.486811 551.514953 0 533.803163 0 512.098541c0-21.755812 14.486811-39.416412 32.300982-39.416412h565.446352c17.814171 0 32.249792 17.6606 32.249792 39.416412z" fill="#3B6CFF" p-id="3166"></path><path d="M660.045741 533.444832l-173.892925 167.391777a32.812884 32.812884 0 0 1-43.716385-1.023803 29.229573 29.229573 0 0 1-1.023803-41.719969L592.88427 512.098541 441.463818 366.206625a29.229573 29.229573 0 0 1 1.023803-41.719969 32.812884 32.812884 0 0 1 43.665195-1.074993l173.892925 167.391777c5.989247 5.630916 9.316607 13.309438 9.367797 21.295101a29.587904 29.587904 0 0 1-9.367797 21.346291z" fill="#3B6CFF" p-id="3167"></path></svg>