<?xml version="1.0" standalone="no"?><!DOCTYPE svg PUBLIC "-//W3C//DTD SVG 1.1//EN" "http://www.w3.org/Graphics/SVG/1.1/DTD/svg11.dtd"><svg t="1564108810394" class="icon" viewBox="0 0 1024 1024" version="1.1" xmlns="http://www.w3.org/2000/svg" p-id="3284" xmlns:xlink="http://www.w3.org/1999/xlink" width="32" height="32"><defs><style type="text/css"></style></defs><path d="M827.053739 334.779733C827.053739 149.845333 677.208405 0 492.342272 0 307.407872 0 157.528405 149.879467 157.528405 334.779733c0 184.866133 149.879467 334.7456 334.779734 334.7456s334.779733-149.845333 334.779733-334.7456z" fill="#F4DBDD" p-id="3285"></path><path d="M512.071339 0C794.797739 0 1024.003072 229.239467 1024.003072 512c0 282.760533-218.282667 512-501.009067 512a30.1056 30.1056 0 0 1-29.969066-30.1056c0-16.5888 13.380267-49.527467 29.969066-49.629867 221.866667 0 380.142933-141.653333 415.266134-360.7552 35.157333-219.136-74.24-411.8528-285.013334-481.211733C442.541739 32.938667 237.707605 107.52 135.853739 304.708267 33.999872 501.794133 65.334272 743.765333 243.885739 875.52a30.139733 30.139733 0 0 1-35.84 48.469333A512 512 0 0 1 512.071339 0z" fill="#3B6CFF" p-id="3286"></path><path d="M512.003072 393.8304c21.742933 0 39.389867 14.472533 39.389867 32.324267v565.521066c0 17.851733-17.646933 32.324267-39.389867 32.324267-21.742933 0-39.389867-14.472533-39.389867-32.324267V426.154667c0-17.851733 17.646933-32.324267 39.389867-32.324267z" fill="#3B6CFF" p-id="3287"></path><path d="M533.336405 363.8272l167.492267 173.909333a32.836267 32.836267 0 0 1-1.1264 43.690667 29.252267 29.252267 0 0 1-41.6768 1.024L512.003072 431.035733l-145.92 151.415467a29.252267 29.252267 0 0 1-41.710933-1.024 32.836267 32.836267 0 0 1-1.092267-43.690667l167.389867-173.909333a29.559467 29.559467 0 0 1 21.333333-9.352533c8.021333 0 15.701333 3.413333 21.333333 9.352533z" fill="#3B6CFF" p-id="3288"></path></svg>