<?xml version="1.0" standalone="no"?><!DOCTYPE svg PUBLIC "-//W3C//DTD SVG 1.1//EN" "http://www.w3.org/Graphics/SVG/1.1/DTD/svg11.dtd"><svg t="1564110930556" class="icon" viewBox="0 0 1070 1024" version="1.1" xmlns="http://www.w3.org/2000/svg" p-id="5990" xmlns:xlink="http://www.w3.org/1999/xlink" width="66.875" height="64"><defs><style type="text/css"></style></defs><path d="M968.145455 491.101091l-433.477819-389.538909a34.350545 34.350545 0 0 0-45.242181 0l-433.477819 389.585454c-20.014545 17.966545-6.050909 48.965818 22.853819 48.965819h60.183272v341.783272C138.984727 906.333091 166.167273 930.909091 186.181818 930.909091h140.567273c30.254545 0 45.940364-22.202182 45.940364-49.012364v-90.065454c0-19.735273 9.774545-47.476364 46.545454-47.476364h186.833455c19.083636 0 45.754182 14.429091 45.754181 47.476364v90.065454c0 27.229091 16.570182 49.012364 46.405819 49.012364h139.310545c16.942545 0 46.545455-15.918545 46.545455-49.012364v-341.783272h61.160727c28.439273 0 42.868364-30.999273 22.807273-49.012364z" fill="#8891B1" p-id="5991"></path></svg>