<?xml version="1.0" standalone="no"?><!DOCTYPE svg PUBLIC "-//W3C//DTD SVG 1.1//EN"
  "http://www.w3.org/Graphics/SVG/1.1/DTD/svg11.dtd">
<svg t="1564121409772" class="icon" viewBox="0 0 1024 1024" version="1.1" xmlns="http://www.w3.org/2000/svg" p-id="3463"
     xmlns:xlink="http://www.w3.org/1999/xlink" width="64" height="64">
  <defs>
    <style type="text/css"></style>
  </defs>
  <path
    d="M572.302222 26.965333a89.315556 89.315556 0 0 0-121.912889 0L19.968 432.924444c-52.167111 55.182222 8.931556 80.327111 61.326222 80.327112h203.036445v283.306666c0 20.195556 22.186667 56.888889 60.871111 56.888889h332.629333c26.055111 0 61.553778-22.300444 61.610667-56.888889v-283.306666h202.581333c72.817778 1.080889 107.576889-32.540444 60.700445-80.327112L572.302222 26.965333z M284.444444 910.222222m56.888889 0l341.333334 0q56.888889 0 56.888889 56.888889l0 0q0 56.888889-56.888889 56.888889l-341.333334 0q-56.888889 0-56.888889-56.888889l0 0q0-56.888889 56.888889-56.888889Z"
    fill="#05CC7F" p-id="3464"></path>
</svg>
