<?xml version="1.0" standalone="no"?><!DOCTYPE svg PUBLIC "-//W3C//DTD SVG 1.1//EN"
  "http://www.w3.org/Graphics/SVG/1.1/DTD/svg11.dtd">
<svg t="1564121301233" class="icon" viewBox="0 0 1024 1024" version="1.1" xmlns="http://www.w3.org/2000/svg" p-id="3338"
     xmlns:xlink="http://www.w3.org/1999/xlink" width="64" height="64">
  <defs>
    <style type="text/css"></style>
  </defs>
  <path
    d="M188.612177 323.368421c0 179.631158 143.737263 323.368421 323.368421 323.368421s323.368421-143.737263 323.368421-323.368421-143.737263-323.368421-323.368421-323.368421-323.368421 143.737263-323.368421 323.368421z M726.912808 632.131368c-53.733053 50.122105-131.880421 81.973895-214.93221 81.973895-82.997895 0-161.145263-31.851789-214.932211-81.973895a63.973053 63.973053 0 0 0-82.997894-4.581052C121.243756 700.469895 52.79744 796.133053 28.437019 928.282947 18.682072 983.04 57.755756 1024 116.339335 1024h791.282526c58.583579 0 97.657263-45.594947 87.902316-95.717053-19.509895-127.568842-87.902316-223.285895-185.613474-300.732631a63.973053 63.973053 0 0 0-82.997895 4.581052z"
    fill="#8891B1" p-id="3339"></path>
</svg>
