<?xml version="1.0" standalone="no"?><!DOCTYPE svg PUBLIC "-//W3C//DTD SVG 1.1//EN"
  "http://www.w3.org/Graphics/SVG/1.1/DTD/svg11.dtd">
<svg t="1564120822587" class="icon" viewBox="0 0 1024 1024" version="1.1" xmlns="http://www.w3.org/2000/svg" p-id="3214"
     xmlns:xlink="http://www.w3.org/1999/xlink" width="64" height="64">
  <defs>
    <style type="text/css"></style>
  </defs>
  <path
    d="M666.88 359.936h266.6496C993.792 373.5552 1024 424.1408 1024 511.744c0 87.552-30.1568 138.9056-90.4704 154.112h-266.6496V931.84c-23.1936 61.44-74.9568 92.16-155.136 92.16-80.2304 0-131.072-30.72-152.576-92.16v-265.9328H92.16C30.72 643.328 0 591.872 0 511.744 0 431.5136 30.72 380.928 92.16 359.936h267.008V90.4704C373.2992 30.208 424.192 0 511.744 0s139.264 30.1568 155.136 90.4704V359.936zM402.7904 436.8896a20.48 20.48 0 1 0 0-40.96 20.48 20.48 0 0 0 0 40.96z m0 95.5904a20.48 20.48 0 1 0 0-40.96 20.48 20.48 0 0 0 0 40.96z m0 95.5904a20.48 20.48 0 1 0 0-40.96 20.48 20.48 0 0 0 0 40.96zM512 436.8896a20.48 20.48 0 1 0 0-40.96 20.48 20.48 0 0 0 0 40.96z m6.8096 95.5904a20.48 20.48 0 1 0 0-40.96 20.48 20.48 0 0 0 0 40.96z m0 95.5904a20.48 20.48 0 1 0 0-40.96 20.48 20.48 0 0 0 0 40.96z m102.4-191.1808a20.48 20.48 0 1 0 0-40.96 20.48 20.48 0 0 0 0 40.96z m0 95.5904a20.48 20.48 0 1 0 0-40.96 20.48 20.48 0 0 0 0 40.96z m0 95.5904a20.48 20.48 0 1 0 0-40.96 20.48 20.48 0 0 0 0 40.96z"
    fill="#8891B1" p-id="3215"></path>
</svg>
